<mxfile host="Electron" modified="2023-08-11T01:58:45.847Z" agent="Mozilla/5.0 (Windows NT 10.0; Win64; x64) AppleWebKit/537.36 (KHTML, like Gecko) draw.io/21.6.5 Chrome/114.0.5735.243 Electron/25.3.1 Safari/537.36" etag="vQDE9Ovr8CjXNwI23w0t" version="21.6.5" type="device">
  <diagram id="R2lEEEUBdFMjLlhIrx00" name="Page-1">
    <mxGraphModel dx="1467" dy="873" grid="1" gridSize="10" guides="1" tooltips="1" connect="1" arrows="1" fold="1" page="1" pageScale="1" pageWidth="850" pageHeight="1100" math="0" shadow="0" extFonts="Permanent Marker^https://fonts.googleapis.com/css?family=Permanent+Marker">
      <root>
        <mxCell id="0" />
        <mxCell id="1" parent="0" />
        <mxCell id="5n9DnabvHOIzad0tQ0xk-1" value="&lt;b&gt;JESÚS ALBERTO DOMÍNGUEZ CHARRIS&lt;/b&gt;" style="text;html=1;align=center;verticalAlign=middle;resizable=0;points=[];autosize=1;strokeColor=none;fillColor=none;" vertex="1" parent="1">
          <mxGeometry x="410" y="80" width="260" height="30" as="geometry" />
        </mxCell>
        <mxCell id="5n9DnabvHOIzad0tQ0xk-2" value="Clientes" style="whiteSpace=wrap;html=1;align=center;" vertex="1" parent="1">
          <mxGeometry x="50" y="390" width="100" height="40" as="geometry" />
        </mxCell>
        <mxCell id="5n9DnabvHOIzad0tQ0xk-19" style="edgeStyle=orthogonalEdgeStyle;rounded=0;orthogonalLoop=1;jettySize=auto;html=1;exitX=0;exitY=0.5;exitDx=0;exitDy=0;entryX=0;entryY=0.5;entryDx=0;entryDy=0;endArrow=none;endFill=0;" edge="1" parent="1" source="5n9DnabvHOIzad0tQ0xk-3" target="5n9DnabvHOIzad0tQ0xk-2">
          <mxGeometry relative="1" as="geometry" />
        </mxCell>
        <mxCell id="5n9DnabvHOIzad0tQ0xk-3" value="ID" style="ellipse;whiteSpace=wrap;html=1;align=center;fontStyle=4;" vertex="1" parent="1">
          <mxGeometry x="50" y="320" width="100" height="40" as="geometry" />
        </mxCell>
        <mxCell id="5n9DnabvHOIzad0tQ0xk-20" style="edgeStyle=orthogonalEdgeStyle;rounded=0;orthogonalLoop=1;jettySize=auto;html=1;exitX=0;exitY=0.5;exitDx=0;exitDy=0;entryX=0;entryY=0.5;entryDx=0;entryDy=0;endArrow=none;endFill=0;" edge="1" parent="1" source="5n9DnabvHOIzad0tQ0xk-4" target="5n9DnabvHOIzad0tQ0xk-2">
          <mxGeometry relative="1" as="geometry">
            <mxPoint x="10" y="340" as="targetPoint" />
          </mxGeometry>
        </mxCell>
        <mxCell id="5n9DnabvHOIzad0tQ0xk-4" value="Nombre" style="ellipse;whiteSpace=wrap;html=1;align=center;" vertex="1" parent="1">
          <mxGeometry x="50" y="260" width="100" height="40" as="geometry" />
        </mxCell>
        <mxCell id="5n9DnabvHOIzad0tQ0xk-21" style="edgeStyle=orthogonalEdgeStyle;rounded=0;orthogonalLoop=1;jettySize=auto;html=1;exitX=0;exitY=0.5;exitDx=0;exitDy=0;entryX=0;entryY=0.5;entryDx=0;entryDy=0;endArrow=none;endFill=0;" edge="1" parent="1" source="5n9DnabvHOIzad0tQ0xk-5" target="5n9DnabvHOIzad0tQ0xk-2">
          <mxGeometry relative="1" as="geometry" />
        </mxCell>
        <mxCell id="5n9DnabvHOIzad0tQ0xk-5" value="Dirección" style="ellipse;whiteSpace=wrap;html=1;align=center;" vertex="1" parent="1">
          <mxGeometry x="50" y="200" width="100" height="40" as="geometry" />
        </mxCell>
        <mxCell id="5n9DnabvHOIzad0tQ0xk-22" style="edgeStyle=orthogonalEdgeStyle;rounded=0;orthogonalLoop=1;jettySize=auto;html=1;exitX=0;exitY=0.5;exitDx=0;exitDy=0;entryX=0;entryY=0.5;entryDx=0;entryDy=0;endArrow=none;endFill=0;" edge="1" parent="1" source="5n9DnabvHOIzad0tQ0xk-8" target="5n9DnabvHOIzad0tQ0xk-2">
          <mxGeometry relative="1" as="geometry" />
        </mxCell>
        <mxCell id="5n9DnabvHOIzad0tQ0xk-8" value="Ubicación" style="ellipse;whiteSpace=wrap;html=1;align=center;" vertex="1" parent="1">
          <mxGeometry x="50" y="140" width="100" height="40" as="geometry" />
        </mxCell>
        <mxCell id="5n9DnabvHOIzad0tQ0xk-27" style="edgeStyle=orthogonalEdgeStyle;rounded=0;orthogonalLoop=1;jettySize=auto;html=1;exitX=0;exitY=0.5;exitDx=0;exitDy=0;entryX=1;entryY=0.5;entryDx=0;entryDy=0;endArrow=none;endFill=0;" edge="1" parent="1" source="5n9DnabvHOIzad0tQ0xk-9" target="5n9DnabvHOIzad0tQ0xk-8">
          <mxGeometry relative="1" as="geometry" />
        </mxCell>
        <mxCell id="5n9DnabvHOIzad0tQ0xk-9" value="Longitud" style="ellipse;whiteSpace=wrap;html=1;align=center;" vertex="1" parent="1">
          <mxGeometry x="230" y="100" width="100" height="40" as="geometry" />
        </mxCell>
        <mxCell id="5n9DnabvHOIzad0tQ0xk-28" style="edgeStyle=orthogonalEdgeStyle;rounded=0;orthogonalLoop=1;jettySize=auto;html=1;exitX=0;exitY=0.5;exitDx=0;exitDy=0;entryX=1;entryY=0.5;entryDx=0;entryDy=0;endArrow=none;endFill=0;" edge="1" parent="1" source="5n9DnabvHOIzad0tQ0xk-10" target="5n9DnabvHOIzad0tQ0xk-8">
          <mxGeometry relative="1" as="geometry" />
        </mxCell>
        <mxCell id="5n9DnabvHOIzad0tQ0xk-10" value="Latitud" style="ellipse;whiteSpace=wrap;html=1;align=center;" vertex="1" parent="1">
          <mxGeometry x="230" y="170" width="100" height="40" as="geometry" />
        </mxCell>
        <mxCell id="5n9DnabvHOIzad0tQ0xk-25" style="edgeStyle=orthogonalEdgeStyle;rounded=0;orthogonalLoop=1;jettySize=auto;html=1;exitX=0;exitY=0.5;exitDx=0;exitDy=0;entryX=0;entryY=0.5;entryDx=0;entryDy=0;endArrow=none;endFill=0;" edge="1" parent="1" source="5n9DnabvHOIzad0tQ0xk-11" target="5n9DnabvHOIzad0tQ0xk-2">
          <mxGeometry relative="1" as="geometry" />
        </mxCell>
        <mxCell id="5n9DnabvHOIzad0tQ0xk-11" value="Tiempo entrega" style="ellipse;whiteSpace=wrap;html=1;align=center;" vertex="1" parent="1">
          <mxGeometry x="50" y="80" width="100" height="40" as="geometry" />
        </mxCell>
        <mxCell id="5n9DnabvHOIzad0tQ0xk-14" value="Empleados" style="whiteSpace=wrap;html=1;align=center;" vertex="1" parent="1">
          <mxGeometry x="370" y="590" width="100" height="40" as="geometry" />
        </mxCell>
        <mxCell id="5n9DnabvHOIzad0tQ0xk-40" style="edgeStyle=orthogonalEdgeStyle;rounded=0;orthogonalLoop=1;jettySize=auto;html=1;exitX=0;exitY=0.5;exitDx=0;exitDy=0;entryX=0;entryY=0.5;entryDx=0;entryDy=0;endArrow=none;endFill=0;" edge="1" parent="1" source="5n9DnabvHOIzad0tQ0xk-15" target="5n9DnabvHOIzad0tQ0xk-14">
          <mxGeometry relative="1" as="geometry" />
        </mxCell>
        <mxCell id="5n9DnabvHOIzad0tQ0xk-15" value="ID" style="ellipse;whiteSpace=wrap;html=1;align=center;fontStyle=4;" vertex="1" parent="1">
          <mxGeometry x="110" y="650" width="100" height="40" as="geometry" />
        </mxCell>
        <mxCell id="5n9DnabvHOIzad0tQ0xk-41" style="edgeStyle=orthogonalEdgeStyle;rounded=0;orthogonalLoop=1;jettySize=auto;html=1;exitX=0;exitY=0.5;exitDx=0;exitDy=0;entryX=0;entryY=0.5;entryDx=0;entryDy=0;endArrow=none;endFill=0;" edge="1" parent="1" source="5n9DnabvHOIzad0tQ0xk-16" target="5n9DnabvHOIzad0tQ0xk-14">
          <mxGeometry relative="1" as="geometry" />
        </mxCell>
        <mxCell id="5n9DnabvHOIzad0tQ0xk-16" value="Nombre" style="ellipse;whiteSpace=wrap;html=1;align=center;" vertex="1" parent="1">
          <mxGeometry x="110" y="720" width="100" height="40" as="geometry" />
        </mxCell>
        <mxCell id="5n9DnabvHOIzad0tQ0xk-42" style="edgeStyle=orthogonalEdgeStyle;rounded=0;orthogonalLoop=1;jettySize=auto;html=1;exitX=0;exitY=0.5;exitDx=0;exitDy=0;entryX=0;entryY=0.5;entryDx=0;entryDy=0;endArrow=none;endFill=0;" edge="1" parent="1" source="5n9DnabvHOIzad0tQ0xk-17" target="5n9DnabvHOIzad0tQ0xk-14">
          <mxGeometry relative="1" as="geometry" />
        </mxCell>
        <mxCell id="5n9DnabvHOIzad0tQ0xk-17" value="Dirección" style="ellipse;whiteSpace=wrap;html=1;align=center;" vertex="1" parent="1">
          <mxGeometry x="110" y="790" width="100" height="40" as="geometry" />
        </mxCell>
        <mxCell id="5n9DnabvHOIzad0tQ0xk-43" style="edgeStyle=orthogonalEdgeStyle;rounded=0;orthogonalLoop=1;jettySize=auto;html=1;exitX=0.5;exitY=0;exitDx=0;exitDy=0;entryX=0.5;entryY=1;entryDx=0;entryDy=0;endArrow=none;endFill=0;" edge="1" parent="1" source="5n9DnabvHOIzad0tQ0xk-30" target="5n9DnabvHOIzad0tQ0xk-17">
          <mxGeometry relative="1" as="geometry" />
        </mxCell>
        <mxCell id="5n9DnabvHOIzad0tQ0xk-30" value="Ciudad" style="ellipse;whiteSpace=wrap;html=1;align=center;" vertex="1" parent="1">
          <mxGeometry x="50" y="880" width="100" height="40" as="geometry" />
        </mxCell>
        <mxCell id="5n9DnabvHOIzad0tQ0xk-44" style="edgeStyle=orthogonalEdgeStyle;rounded=0;orthogonalLoop=1;jettySize=auto;html=1;exitX=0.5;exitY=0;exitDx=0;exitDy=0;entryX=0.5;entryY=1;entryDx=0;entryDy=0;endArrow=none;endFill=0;" edge="1" parent="1" source="5n9DnabvHOIzad0tQ0xk-31" target="5n9DnabvHOIzad0tQ0xk-17">
          <mxGeometry relative="1" as="geometry" />
        </mxCell>
        <mxCell id="5n9DnabvHOIzad0tQ0xk-31" value="Estado" style="ellipse;whiteSpace=wrap;html=1;align=center;" vertex="1" parent="1">
          <mxGeometry x="170" y="880" width="100" height="40" as="geometry" />
        </mxCell>
        <mxCell id="5n9DnabvHOIzad0tQ0xk-45" style="edgeStyle=orthogonalEdgeStyle;rounded=0;orthogonalLoop=1;jettySize=auto;html=1;exitX=0.5;exitY=0;exitDx=0;exitDy=0;entryX=0.5;entryY=1;entryDx=0;entryDy=0;endArrow=none;endFill=0;" edge="1" parent="1" source="5n9DnabvHOIzad0tQ0xk-32" target="5n9DnabvHOIzad0tQ0xk-17">
          <mxGeometry relative="1" as="geometry" />
        </mxCell>
        <mxCell id="5n9DnabvHOIzad0tQ0xk-32" value="Código postal" style="ellipse;whiteSpace=wrap;html=1;align=center;" vertex="1" parent="1">
          <mxGeometry x="290" y="880" width="100" height="40" as="geometry" />
        </mxCell>
        <mxCell id="5n9DnabvHOIzad0tQ0xk-47" style="edgeStyle=orthogonalEdgeStyle;rounded=0;orthogonalLoop=1;jettySize=auto;html=1;exitX=0;exitY=0.5;exitDx=0;exitDy=0;entryX=0;entryY=0.5;entryDx=0;entryDy=0;endArrow=none;endFill=0;" edge="1" parent="1" source="5n9DnabvHOIzad0tQ0xk-33" target="5n9DnabvHOIzad0tQ0xk-14">
          <mxGeometry relative="1" as="geometry" />
        </mxCell>
        <mxCell id="5n9DnabvHOIzad0tQ0xk-33" value="Género" style="ellipse;whiteSpace=wrap;html=1;align=center;" vertex="1" parent="1">
          <mxGeometry x="290" y="750" width="100" height="40" as="geometry" />
        </mxCell>
        <mxCell id="5n9DnabvHOIzad0tQ0xk-46" style="edgeStyle=orthogonalEdgeStyle;rounded=0;orthogonalLoop=1;jettySize=auto;html=1;exitX=0;exitY=0.5;exitDx=0;exitDy=0;entryX=0;entryY=0.5;entryDx=0;entryDy=0;endArrow=none;endFill=0;" edge="1" parent="1" source="5n9DnabvHOIzad0tQ0xk-34" target="5n9DnabvHOIzad0tQ0xk-14">
          <mxGeometry relative="1" as="geometry" />
        </mxCell>
        <mxCell id="5n9DnabvHOIzad0tQ0xk-34" value="Fecha de nacimiento" style="ellipse;whiteSpace=wrap;html=1;align=center;" vertex="1" parent="1">
          <mxGeometry x="290" y="680" width="100" height="40" as="geometry" />
        </mxCell>
        <mxCell id="5n9DnabvHOIzad0tQ0xk-48" style="edgeStyle=orthogonalEdgeStyle;rounded=0;orthogonalLoop=1;jettySize=auto;html=1;exitX=0.5;exitY=0;exitDx=0;exitDy=0;entryX=1;entryY=0.5;entryDx=0;entryDy=0;endArrow=none;endFill=0;" edge="1" parent="1" source="5n9DnabvHOIzad0tQ0xk-35" target="5n9DnabvHOIzad0tQ0xk-34">
          <mxGeometry relative="1" as="geometry" />
        </mxCell>
        <mxCell id="5n9DnabvHOIzad0tQ0xk-35" value="Edad" style="ellipse;whiteSpace=wrap;html=1;align=center;dashed=1;" vertex="1" parent="1">
          <mxGeometry x="415" y="720" width="100" height="40" as="geometry" />
        </mxCell>
        <mxCell id="5n9DnabvHOIzad0tQ0xk-49" style="edgeStyle=orthogonalEdgeStyle;rounded=0;orthogonalLoop=1;jettySize=auto;html=1;exitX=1;exitY=0.5;exitDx=0;exitDy=0;entryX=1;entryY=0.5;entryDx=0;entryDy=0;endArrow=none;endFill=0;" edge="1" parent="1" source="5n9DnabvHOIzad0tQ0xk-36" target="5n9DnabvHOIzad0tQ0xk-14">
          <mxGeometry relative="1" as="geometry" />
        </mxCell>
        <mxCell id="5n9DnabvHOIzad0tQ0xk-36" value="Pago hora" style="ellipse;whiteSpace=wrap;html=1;align=center;" vertex="1" parent="1">
          <mxGeometry x="550" y="650" width="100" height="40" as="geometry" />
        </mxCell>
        <mxCell id="5n9DnabvHOIzad0tQ0xk-50" style="edgeStyle=orthogonalEdgeStyle;rounded=0;orthogonalLoop=1;jettySize=auto;html=1;exitX=1;exitY=0.5;exitDx=0;exitDy=0;entryX=1;entryY=0.5;entryDx=0;entryDy=0;endArrow=none;endFill=0;" edge="1" parent="1" source="5n9DnabvHOIzad0tQ0xk-37" target="5n9DnabvHOIzad0tQ0xk-14">
          <mxGeometry relative="1" as="geometry" />
        </mxCell>
        <mxCell id="5n9DnabvHOIzad0tQ0xk-37" value="Pago hora extra" style="ellipse;whiteSpace=wrap;html=1;align=center;" vertex="1" parent="1">
          <mxGeometry x="550" y="720" width="100" height="40" as="geometry" />
        </mxCell>
        <mxCell id="5n9DnabvHOIzad0tQ0xk-51" style="edgeStyle=orthogonalEdgeStyle;rounded=0;orthogonalLoop=1;jettySize=auto;html=1;exitX=1;exitY=0.5;exitDx=0;exitDy=0;entryX=1;entryY=0.5;entryDx=0;entryDy=0;endArrow=none;endFill=0;" edge="1" parent="1" source="5n9DnabvHOIzad0tQ0xk-38" target="5n9DnabvHOIzad0tQ0xk-14">
          <mxGeometry relative="1" as="geometry" />
        </mxCell>
        <mxCell id="5n9DnabvHOIzad0tQ0xk-38" value="Número de encargados" style="ellipse;whiteSpace=wrap;html=1;align=center;" vertex="1" parent="1">
          <mxGeometry x="550" y="790" width="100" height="40" as="geometry" />
        </mxCell>
        <mxCell id="5n9DnabvHOIzad0tQ0xk-52" style="edgeStyle=orthogonalEdgeStyle;rounded=0;orthogonalLoop=1;jettySize=auto;html=1;exitX=1;exitY=0.5;exitDx=0;exitDy=0;entryX=1;entryY=0.5;entryDx=0;entryDy=0;endArrow=none;endFill=0;" edge="1" parent="1" source="5n9DnabvHOIzad0tQ0xk-39" target="5n9DnabvHOIzad0tQ0xk-14">
          <mxGeometry relative="1" as="geometry" />
        </mxCell>
        <mxCell id="5n9DnabvHOIzad0tQ0xk-39" value="Años en la compañía" style="ellipse;whiteSpace=wrap;html=1;align=center;" vertex="1" parent="1">
          <mxGeometry x="550" y="860" width="100" height="40" as="geometry" />
        </mxCell>
        <mxCell id="5n9DnabvHOIzad0tQ0xk-66" style="edgeStyle=orthogonalEdgeStyle;rounded=0;orthogonalLoop=1;jettySize=auto;html=1;exitX=0;exitY=0.5;exitDx=0;exitDy=0;entryX=1;entryY=0.5;entryDx=0;entryDy=0;endArrow=none;endFill=0;" edge="1" parent="1" source="5n9DnabvHOIzad0tQ0xk-53" target="5n9DnabvHOIzad0tQ0xk-64">
          <mxGeometry relative="1" as="geometry" />
        </mxCell>
        <mxCell id="5n9DnabvHOIzad0tQ0xk-71" style="edgeStyle=orthogonalEdgeStyle;rounded=0;orthogonalLoop=1;jettySize=auto;html=1;exitX=0.5;exitY=1;exitDx=0;exitDy=0;entryX=0.5;entryY=0;entryDx=0;entryDy=0;endArrow=none;endFill=0;" edge="1" parent="1" source="5n9DnabvHOIzad0tQ0xk-53" target="5n9DnabvHOIzad0tQ0xk-70">
          <mxGeometry relative="1" as="geometry">
            <Array as="points">
              <mxPoint x="600" y="460" />
              <mxPoint x="465" y="460" />
            </Array>
          </mxGeometry>
        </mxCell>
        <mxCell id="5n9DnabvHOIzad0tQ0xk-53" value="Produtos" style="whiteSpace=wrap;html=1;align=center;" vertex="1" parent="1">
          <mxGeometry x="550" y="390" width="100" height="40" as="geometry" />
        </mxCell>
        <mxCell id="5n9DnabvHOIzad0tQ0xk-60" style="edgeStyle=orthogonalEdgeStyle;rounded=0;orthogonalLoop=1;jettySize=auto;html=1;exitX=1;exitY=0.5;exitDx=0;exitDy=0;entryX=1;entryY=0.5;entryDx=0;entryDy=0;endArrow=none;endFill=0;" edge="1" parent="1" source="5n9DnabvHOIzad0tQ0xk-54" target="5n9DnabvHOIzad0tQ0xk-53">
          <mxGeometry relative="1" as="geometry" />
        </mxCell>
        <mxCell id="5n9DnabvHOIzad0tQ0xk-54" value="ID" style="ellipse;whiteSpace=wrap;html=1;align=center;fontStyle=4;" vertex="1" parent="1">
          <mxGeometry x="550" y="320" width="100" height="40" as="geometry" />
        </mxCell>
        <mxCell id="5n9DnabvHOIzad0tQ0xk-61" style="edgeStyle=orthogonalEdgeStyle;rounded=0;orthogonalLoop=1;jettySize=auto;html=1;exitX=1;exitY=0.5;exitDx=0;exitDy=0;entryX=1;entryY=0.5;entryDx=0;entryDy=0;endArrow=none;endFill=0;" edge="1" parent="1" source="5n9DnabvHOIzad0tQ0xk-56" target="5n9DnabvHOIzad0tQ0xk-53">
          <mxGeometry relative="1" as="geometry" />
        </mxCell>
        <mxCell id="5n9DnabvHOIzad0tQ0xk-56" value="Precio" style="ellipse;whiteSpace=wrap;html=1;align=center;" vertex="1" parent="1">
          <mxGeometry x="550" y="250" width="100" height="40" as="geometry" />
        </mxCell>
        <mxCell id="5n9DnabvHOIzad0tQ0xk-62" style="edgeStyle=orthogonalEdgeStyle;rounded=0;orthogonalLoop=1;jettySize=auto;html=1;exitX=1;exitY=0.5;exitDx=0;exitDy=0;entryX=1;entryY=0.5;entryDx=0;entryDy=0;endArrow=none;endFill=0;" edge="1" parent="1" source="5n9DnabvHOIzad0tQ0xk-57" target="5n9DnabvHOIzad0tQ0xk-53">
          <mxGeometry relative="1" as="geometry" />
        </mxCell>
        <mxCell id="5n9DnabvHOIzad0tQ0xk-57" value="Unidades por día" style="ellipse;whiteSpace=wrap;html=1;align=center;" vertex="1" parent="1">
          <mxGeometry x="550" y="180" width="100" height="40" as="geometry" />
        </mxCell>
        <mxCell id="5n9DnabvHOIzad0tQ0xk-63" style="edgeStyle=orthogonalEdgeStyle;rounded=0;orthogonalLoop=1;jettySize=auto;html=1;exitX=1;exitY=0.5;exitDx=0;exitDy=0;entryX=0;entryY=0.5;entryDx=0;entryDy=0;endArrow=none;endFill=0;" edge="1" parent="1" source="5n9DnabvHOIzad0tQ0xk-58" target="5n9DnabvHOIzad0tQ0xk-56">
          <mxGeometry relative="1" as="geometry" />
        </mxCell>
        <mxCell id="5n9DnabvHOIzad0tQ0xk-58" value="IVA" style="ellipse;whiteSpace=wrap;html=1;align=center;dashed=1;" vertex="1" parent="1">
          <mxGeometry x="400" y="250" width="100" height="40" as="geometry" />
        </mxCell>
        <mxCell id="5n9DnabvHOIzad0tQ0xk-67" style="edgeStyle=orthogonalEdgeStyle;rounded=0;orthogonalLoop=1;jettySize=auto;html=1;exitX=0;exitY=0.5;exitDx=0;exitDy=0;entryX=1;entryY=0.5;entryDx=0;entryDy=0;endArrow=none;endFill=0;" edge="1" parent="1" source="5n9DnabvHOIzad0tQ0xk-64" target="5n9DnabvHOIzad0tQ0xk-2">
          <mxGeometry relative="1" as="geometry" />
        </mxCell>
        <mxCell id="5n9DnabvHOIzad0tQ0xk-64" value="Ordenar" style="shape=rhombus;perimeter=rhombusPerimeter;whiteSpace=wrap;html=1;align=center;" vertex="1" parent="1">
          <mxGeometry x="290" y="380" width="120" height="60" as="geometry" />
        </mxCell>
        <mxCell id="5n9DnabvHOIzad0tQ0xk-68" value="Uno o muchos" style="text;html=1;align=center;verticalAlign=middle;resizable=0;points=[];autosize=1;strokeColor=none;fillColor=none;" vertex="1" parent="1">
          <mxGeometry x="420" y="380" width="100" height="30" as="geometry" />
        </mxCell>
        <mxCell id="5n9DnabvHOIzad0tQ0xk-69" value="Uno o muchos" style="text;html=1;align=center;verticalAlign=middle;resizable=0;points=[];autosize=1;strokeColor=none;fillColor=none;" vertex="1" parent="1">
          <mxGeometry x="175" y="380" width="100" height="30" as="geometry" />
        </mxCell>
        <mxCell id="5n9DnabvHOIzad0tQ0xk-72" style="edgeStyle=orthogonalEdgeStyle;rounded=0;orthogonalLoop=1;jettySize=auto;html=1;exitX=0.5;exitY=1;exitDx=0;exitDy=0;entryX=0.5;entryY=0;entryDx=0;entryDy=0;" edge="1" parent="1" source="5n9DnabvHOIzad0tQ0xk-70" target="5n9DnabvHOIzad0tQ0xk-14">
          <mxGeometry relative="1" as="geometry" />
        </mxCell>
        <mxCell id="5n9DnabvHOIzad0tQ0xk-70" value="Producir" style="shape=rhombus;perimeter=rhombusPerimeter;whiteSpace=wrap;html=1;align=center;" vertex="1" parent="1">
          <mxGeometry x="405" y="480" width="120" height="60" as="geometry" />
        </mxCell>
        <mxCell id="5n9DnabvHOIzad0tQ0xk-73" value="Uno o muchos" style="text;html=1;align=center;verticalAlign=middle;resizable=0;points=[];autosize=1;strokeColor=none;fillColor=none;" vertex="1" parent="1">
          <mxGeometry x="490" y="458" width="100" height="30" as="geometry" />
        </mxCell>
        <mxCell id="5n9DnabvHOIzad0tQ0xk-74" value="A uno" style="text;html=1;align=center;verticalAlign=middle;resizable=0;points=[];autosize=1;strokeColor=none;fillColor=none;" vertex="1" parent="1">
          <mxGeometry x="380" y="535" width="50" height="30" as="geometry" />
        </mxCell>
      </root>
    </mxGraphModel>
  </diagram>
</mxfile>
